<svg xmlns="http://www.w3.org/2000/svg" viewBox="0 0 20 20" fill="none">
  <path fill-rule="evenodd" clip-rule="evenodd" d="M5.34687 13.7924C3.69988 12.0549 2.38293 10.896 1.95794 9.06314C1.64189 7.70016 1.73576 5.20846 3.59115 4.04797C7.68236 1.48877 9.9748 5.41581 9.9748 5.41581H10.0252C10.0252 5.41581 12.3176 1.48877 16.4088 4.04797C18.2642 5.20846 18.3581 7.70016 18.042 9.06314C17.6171 10.896 16.3001 12.0549 14.6531 13.7924C9.99999 18.1818 10.0026 18.1862 9.99999 18.1818C9.99999 18.1818 9.99999 18.1818 5.34687 13.7924Z" stroke="#B43333"/>
  <path fill-rule="evenodd" clip-rule="evenodd" d="M5.34687 13.7924C3.69988 12.0549 2.38293 10.896 1.95794 9.06314C1.64189 7.70016 1.73576 5.20846 3.59115 4.04797C7.68236 1.48877 9.9748 5.41581 9.9748 5.41581H10.0252C10.0252 5.41581 12.3176 1.48877 16.4088 4.04797C18.2642 5.20846 18.3581 7.70016 18.042 9.06314C17.6171 10.896 16.3001 12.0549 14.6531 13.7924C9.99999 18.1818 10.0026 18.1862 9.99999 18.1818C9.99999 18.1818 9.99999 18.1818 5.34687 13.7924Z" stroke="url(#paint0_linear_1_330)"/>
  <path fill-rule="evenodd" clip-rule="evenodd" d="M5.34687 13.7924C3.69988 12.0549 2.38293 10.896 1.95794 9.06314C1.64189 7.70016 1.73576 5.20846 3.59115 4.04797C7.68236 1.48877 9.9748 5.41581 9.9748 5.41581H10.0252C10.0252 5.41581 12.3176 1.48877 16.4088 4.04797C18.2642 5.20846 18.3581 7.70016 18.042 9.06314C17.6171 10.896 16.3001 12.0549 14.6531 13.7924C9.99999 18.1818 10.0026 18.1862 9.99999 18.1818C9.99999 18.1818 9.99999 18.1818 5.34687 13.7924Z" stroke="url(#paint1_linear_1_330)"/>
  <defs>
    <linearGradient id="paint1_linear_1_330" x1="8.44033" y1="-4.41205" x2="22.6144" y2="4.46655" gradientUnits="userSpaceOnUse">
      <stop stop-color="#D44F4F"/>
      <stop offset="1" stop-color="#B43333"/>
    </linearGradient>
  </defs>
</svg>