<svg xmlns="http://www.w3.org/2000/svg" viewBox="0 0 20 20" fill="none">
  <path fill-rule="evenodd" clip-rule="evenodd" d="M5.34687 13.7924C3.69988 12.0549 2.38293 10.896 1.95794 9.06313C1.64189 7.70015 1.73576 5.20845 3.59115 4.04797C7.68236 1.48876 9.9748 5.4158 9.9748 5.4158H10.0252C10.0252 5.4158 12.3176 1.48876 16.4088 4.04797C18.2642 5.20845 18.3581 7.70015 18.042 9.06313C17.6171 10.896 16.3001 12.0549 14.6531 13.7924C9.99999 18.1818 10.0026 18.1862 9.99999 18.1818C9.99999 18.1818 9.99999 18.1818 5.34687 13.7924Z" fill="url(#paint0_linear_1_345)"/>
  <path fill-rule="evenodd" clip-rule="evenodd" d="M5.34687 13.7924C3.69988 12.0549 2.38293 10.896 1.95794 9.06313C1.64189 7.70015 1.73576 5.20845 3.59115 4.04797C7.68236 1.48876 9.9748 5.4158 9.9748 5.4158H10.0252C10.0252 5.4158 12.3176 1.48876 16.4088 4.04797C18.2642 5.20845 18.3581 7.70015 18.042 9.06313C17.6171 10.896 16.3001 12.0549 14.6531 13.7924C9.99999 18.1818 10.0026 18.1862 9.99999 18.1818C9.99999 18.1818 9.99999 18.1818 5.34687 13.7924Z" stroke="#41BB45"/>
  <path fill-rule="evenodd" clip-rule="evenodd" d="M5.34687 13.7924C3.69988 12.0549 2.38293 10.896 1.95794 9.06313C1.64189 7.70015 1.73576 5.20845 3.59115 4.04797C7.68236 1.48876 9.9748 5.4158 9.9748 5.4158H10.0252C10.0252 5.4158 12.3176 1.48876 16.4088 4.04797C18.2642 5.20845 18.3581 7.70015 18.042 9.06313C17.6171 10.896 16.3001 12.0549 14.6531 13.7924C9.99999 18.1818 10.0026 18.1862 9.99999 18.1818C9.99999 18.1818 9.99999 18.1818 5.34687 13.7924Z" stroke="url(#paint1_linear_1_345)"/>
  <path fill-rule="evenodd" clip-rule="evenodd" d="M5.34687 13.7924C3.69988 12.0549 2.38293 10.896 1.95794 9.06313C1.64189 7.70015 1.73576 5.20845 3.59115 4.04797C7.68236 1.48876 9.9748 5.4158 9.9748 5.4158H10.0252C10.0252 5.4158 12.3176 1.48876 16.4088 4.04797C18.2642 5.20845 18.3581 7.70015 18.042 9.06313C17.6171 10.896 16.3001 12.0549 14.6531 13.7924C9.99999 18.1818 10.0026 18.1862 9.99999 18.1818C9.99999 18.1818 9.99999 18.1818 5.34687 13.7924Z" stroke="url(#paint2_linear_1_345)"/>
  <defs>
    <linearGradient id="paint0_linear_1_345" x1="8.44033" y1="-4.41206" x2="22.6144" y2="4.46654" gradientUnits="userSpaceOnUse">
      <stop stop-color="#D44F4F"/>
      <stop offset="1" stop-color="#B43333"/>
    </linearGradient>
    <linearGradient id="paint1_linear_1_345" x1="8.44033" y1="-4.41206" x2="22.6144" y2="4.46654" gradientUnits="userSpaceOnUse">
      <stop stop-color="#59D44F"/>
      <stop offset="1" stop-color="#36B433"/>
    </linearGradient>
    <linearGradient id="paint2_linear_1_345" x1="8.44033" y1="-4.41206" x2="22.6144" y2="4.46654" gradientUnits="userSpaceOnUse">
      <stop stop-color="#D44F4F"/>
      <stop offset="1" stop-color="#B43333"/>
    </linearGradient>
  </defs>
</svg>